<?xml version="1.0" encoding="UTF-8" standalone="no"?>
<!-- Created with Inkscape (http://www.inkscape.org/) -->

<svg
   width="301"
   height="301"
   viewBox="0 0 79.639581 79.639583"
   version="1.1"
   id="svg69"
   inkscape:version="1.2.1 (9c6d41e410, 2022-07-14)"
   sodipodi:docname="logo.svg"
   xmlns:inkscape="http://www.inkscape.org/namespaces/inkscape"
   xmlns:sodipodi="http://sodipodi.sourceforge.net/DTD/sodipodi-0.dtd"
   xmlns="http://www.w3.org/2000/svg"
   xmlns:svg="http://www.w3.org/2000/svg">
  <sodipodi:namedview
     id="namedview71"
     pagecolor="#505050"
     bordercolor="#eeeeee"
     borderopacity="1"
     inkscape:showpageshadow="0"
     inkscape:pageopacity="0"
     inkscape:pagecheckerboard="0"
     inkscape:deskcolor="#505050"
     inkscape:document-units="mm"
     showgrid="false"
     inkscape:zoom="1.7684262"
     inkscape:cx="145.60969"
     inkscape:cy="150.41623"
     inkscape:window-width="1366"
     inkscape:window-height="705"
     inkscape:window-x="-8"
     inkscape:window-y="-8"
     inkscape:window-maximized="1"
     inkscape:current-layer="layer1" />
  <defs
     id="defs66">
    <clipPath
       clipPathUnits="userSpaceOnUse"
       id="clipPath2476">
      <path
         id="path2478"
         style="fill:#ff0000;fill-opacity:1;fill-rule:nonzero;stroke:none;stroke-width:0.264583"
         d="M 0.26820069,0.26820069 V 79.14504 H 28.38173 c -0.141132,-0.08316 -0.284496,-0.163245 -0.415994,-0.260448 -0.296283,-0.219019 -0.545052,-0.493961 -0.763262,-0.791168 -0.469805,0.21526 -1.059477,0.354365 -1.776636,0.372071 -0.772357,0.01908 -1.554084,0.03422 -2.291333,-0.237712 -0.746429,-0.293363 -1.463425,-0.667309 -1.981791,-1.299663 -0.04288,-0.0471 -0.08549,-0.09004 -0.128674,-0.131257 -1.217234,0.939739 -3.039595,0.119052 -3.19257,-2.457731 -0.15827,0.115832 -0.325902,0.220385 -0.499195,0.325044 -2.921414,1.76439 0.937061,-5.182444 -1.591117,-3.096969 -0.0266,0.03353 -0.05351,0.06693 -0.08113,0.09974 -0.01263,-0.01029 -0.0371,2.65e-4 -0.05478,0.01085 0.01637,-0.01238 0.04302,-0.0336 0.08837,-0.07183 0.01644,-0.01386 0.03162,-0.02561 0.04754,-0.03876 0.41613,-0.524539 0.716874,-1.131483 1.190108,-1.611786 0.04811,-0.04883 0.09572,-0.0961 0.143661,-0.141594 0.274633,-0.700477 0.791601,-1.051097 1.308447,-1.051097 0.132763,0 0.26561,0.02405 0.394291,0.07028 0.113527,-0.02159 0.223295,-0.03272 0.328146,-0.03359 0.663538,-0.0055 1.138682,0.392518 1.245918,1.051097 0.157024,-0.05055 0.319462,-0.07968 0.485242,-0.08061 0.882226,-0.0049 1.836421,0.712645 2.308386,2.372463 0.132717,0.466736 0.358281,0.87467 0.561206,1.305349 3.44e-4,-0.0034 3.97e-4,-0.0069 0.0021,-0.01035 0.01053,-0.02876 0.05179,0.03361 0.07441,0.05426 0.246138,0.22466 0.289338,0.278508 0.506429,0.508498 0.03183,0.03499 0.06377,0.06991 0.0956,0.104902 0.01807,-0.09165 0.169856,0.07936 0.259416,0.105936 0.153161,-0.03965 0.347495,-0.03566 0.529683,-0.03462 0.01933,-0.919668 0.615305,-1.473637 1.381312,-1.460376 0.696008,0.01204 1.532678,0.492146 2.205032,1.590601 0.216453,0.353629 0.4562,0.687843 0.727604,1.000972 0.01072,0.01283 0.02003,0.02675 0.03049,0.03979 0.03082,-0.0013 0.06199,-0.0019 0.09353,-0.0021 0.534352,-0.0019 1.172019,0.170804 1.863452,0.582911 0.317881,0.18946 0.597842,0.43234 0.892453,0.653706 0.128029,0.0046 0.259969,0.01431 0.396875,0.03049 0.368173,0.0435 0.116549,0.0063 0.743622,0.16795 0.724937,0.186909 1.224778,0.53431 1.537893,0.943612 0.138552,0.0044 0.277003,0.0109 0.415478,0.01601 0.07622,0.0028 0.153557,-0.0039 0.228926,0.0078 0.214119,0.03318 0.424648,0.08439 0.637169,0.126606 0.511794,0.175395 0.943433,0.46601 1.361157,0.79892 7.94e-4,7.93e-4 0.0016,0.0013 0.0026,0.0021 0.110326,-0.0085 0.224631,-0.01341 0.343133,-0.01394 0.224525,-0.0013 0.44844,-0.0038 0.672309,-0.0031 0.373115,0.0011 0.745405,0.01125 1.117761,0.04961 0.09235,0.0095 0.16559,0.02598 0.24288,0.04082 0.179427,-0.08816 0.379285,-0.176469 0.60203,-0.264065 0.132096,-0.05195 0.264263,-0.104113 0.396359,-0.156064 0.206566,-0.08123 0.404733,-0.133914 0.595313,-0.165881 0.07328,-0.768974 0.829492,-1.457288 2.168342,-1.460894 0.210452,-5.29e-4 0.435536,0.01609 0.674378,0.05168 0.201578,0.03004 0.404177,0.04918 0.607198,0.06563 0.314933,-0.104055 0.263988,-0.09119 0.709517,-0.206708 0.363611,-0.09427 0.695338,-0.138994 0.993222,-0.142626 0.0072,-8.8e-5 0.01408,3.9e-5 0.02119,0 0.258606,-0.171511 0.570198,-0.319553 0.940512,-0.431499 0.725376,-0.219273 1.473919,-0.405106 2.235522,-0.415996 0.138192,-0.0047 0.654699,-0.02307 0.773597,-0.02223 0.03698,2.64e-4 0.08886,-0.01675 0.120407,-0.0041 0.127965,-0.145166 0.26158,-0.298513 0.298688,-0.346233 0.471379,-0.606047 0.872299,-1.262732 1.244886,-1.932697 0.652002,-1.172459 1.511905,-1.683136 2.226738,-1.686719 0.0013,-8e-6 0.0024,0 0.0036,0 0.577752,-1.187333 1.905172,-1.308695 2.660303,-0.197405 0.0662,-0.06411 0.134451,-0.124836 0.204637,-0.181901 v -1.267622 c 0,-1.717188 0.867495,-2.57607 1.734778,-2.57607 0.506182,0 1.010957,0.295071 1.344623,0.880049 0.555284,0.355682 0.987073,1.132686 0.998387,2.333707 0.0019,0.204861 0.0042,0.410011 0.0041,0.61495 0.464526,0.443767 0.858409,0.949864 1.231966,1.47071 1.912779,2.666989 -0.647435,4.650658 -2.571419,2.348177 -0.416973,0.408289 -0.951942,0.531863 -1.439706,0.365355 -0.131176,0.307224 -0.251257,0.620207 -0.410827,0.913638 -0.175919,0.396714 -0.769996,1.896695 -1.212329,1.830896 -2.602484,-0.387131 -2.691257,-0.594043 -2.688209,-1.615922 -0.378592,0.54633 -0.79072,1.069687 -1.230931,1.570448 -0.516007,0.551976 -1.159595,0.833437 -1.901693,0.931209 -0.391904,0.05164 -0.869765,0.02551 -1.274342,0.03927 -0.181652,-0.01413 -0.353946,0.01508 -0.525031,0.0553 H 79.14504 V 0.26820069 Z M 23.735502,73.509725 c 0.007,0.01521 0.01422,0.03019 0.02119,0.04548 0.01183,0.02191 0.02316,0.08797 0.03514,0.06615 0.01984,-0.03616 -0.02426,-0.07372 -0.05633,-0.111622 z m 0.728638,0.68213 0.0052,0.0057 c -3.97e-4,-0.0011 -0.0015,-0.0029 -0.0021,-0.0041 -0.0011,-5.29e-4 -0.0021,-0.0011 -0.0031,-0.0016 z m 26.35963,1.496031 c -0.11993,0.08216 -0.282175,0.196445 -0.121954,0.138493 0.01728,-0.01958 0.07902,-0.08994 0.121954,-0.138493 z" />
    </clipPath>
    <clipPath
       clipPathUnits="userSpaceOnUse"
       id="clipPath4058">
      <path
         id="path4060"
         style="fill:#ff0000;fill-opacity:1;fill-rule:nonzero;stroke:none;stroke-width:0.303142"
         d="m -44.094209,90.40842 -2.549758,3.935844 h 2.772441 c 0.07391,-0.107996 0.146153,-0.216394 0.216705,-0.324935 0.181322,-0.284369 0.08647,-0.134657 0.286634,-0.45043 1.059065,-1.671031 2.21074,-2.727301 3.088217,-3.160479 z" />
    </clipPath>
    <clipPath
       clipPathUnits="userSpaceOnUse"
       id="clipPath4823">
      <path
         id="path4825"
         style="fill:#ff0000;fill-opacity:1;fill-rule:nonzero;stroke:none;stroke-width:0.303142"
         d="m -120.35729,91.682381 c -0.62789,0.788865 -1.24124,1.582005 -1.83257,2.379685 -0.34236,0.530101 -0.74855,1.034914 -1.14101,1.555478 h -2.19522 l 2.54932,-3.935163 z" />
    </clipPath>
  </defs>
  <g
     inkscape:label="Слой 1"
     inkscape:groupmode="layer"
     id="layer1">
    <path
       id="path125"
       style="fill:none;stroke:#c83737;stroke-width:1.79546;stroke-linecap:round;stroke-dasharray:none;stroke-opacity:1;opacity:1"
       d="M 78.247296,39.706586 A 38.540715,38.540717 0 0 1 39.706581,78.247302 38.540715,38.540717 0 0 1 1.1658657,39.706586 38.540715,38.540717 0 0 1 39.706581,1.1658695 38.540715,38.540717 0 0 1 78.247296,39.706586 Z"
       clip-path="url(#clipPath2476)" />
    <circle
       id="path1145"
       style="fill:#000000;stroke:#c83737;stroke-width:0.264583"
       cx="1.7912744"
       cy="33.039062"
       r="0.18557468" />
    <circle
       id="path1147"
       style="fill:#000000;stroke:#c83737;stroke-width:0.264583"
       cx="1.9903051"
       cy="31.844879"
       r="0.18557468" />
    <path
       style="fill:none;stroke:#c83737;stroke-width:1.86705;stroke-linecap:round;stroke-dasharray:none;stroke-opacity:1"
       d="m 2.3958347,33.203848 c 0,0 24.8874103,7.044812 36.7677013,4.007045 15.065433,-3.852202 24.120695,-27.052836 24.120695,-27.052836"
       id="path1214"
       sodipodi:nodetypes="csc" />
    <path
       style="fill:none;stroke:#c83737;stroke-width:1.85208;stroke-linecap:round;stroke-dasharray:none;stroke-opacity:1"
       d="m 3.8637258,25.280076 c 0,0 22.2785372,7.323452 32.9034142,4.766297 C 50.240574,26.803631 59.228944,6.6034469 59.228944,6.6034469"
       id="path1214-6"
       sodipodi:nodetypes="csc" />
    <path
       style="fill:none;stroke:#c83737;stroke-width:1.85208;stroke-linecap:round;stroke-dasharray:none;stroke-opacity:1"
       d="m 8.0819256,17.551922 c 0,0 18.4642114,7.720939 27.5409214,5.678971 C 47.13305,20.641461 54.811712,4.5109791 54.811712,4.5109791"
       id="path1214-6-5"
       sodipodi:nodetypes="csc" />
    <path
       style="fill:none;stroke:#c83737;stroke-width:1.85208;stroke-linecap:round;stroke-dasharray:none;stroke-opacity:1"
       d="m 13.764716,11.740959 c 0,0 13.438044,5.627722 20.670766,3.630131 9.171836,-2.533156 14.69344,-12.7402293 14.69344,-12.7402293"
       id="path1214-6-5-2"
       sodipodi:nodetypes="csc" />
    <path
       style="fill:none;stroke:#c83737;stroke-width:1.85208333;stroke-linecap:round;stroke-dasharray:none;stroke-opacity:1"
       d="m 20.021453,7.3533502 c 0,0 8.598289,3.4990998 13.693624,2.2477369 6.461409,-1.5868598 10.35129,-7.9809368 10.35129,-7.9809368"
       id="path1214-6-5-2-9"
       sodipodi:nodetypes="csc" />
    <path
       style="fill:none;stroke:#c83737;stroke-width:1.85208;stroke-linecap:round;stroke-dasharray:none;stroke-opacity:1"
       d="m 48.762471,32.242939 c 0,0 9.607525,3.483416 15.126318,3.582551 4.462083,0.08015 13.136014,-2.587397 13.136014,-2.587397"
       id="path1320"
       sodipodi:nodetypes="csc" />
    <path
       style="fill:none;stroke:#c83737;stroke-width:1.85208;stroke-linecap:round;stroke-dasharray:none;stroke-opacity:1"
       d="m 53.738234,26.66915 c 0,0 4.631763,2.090203 10.150556,2.189338 4.462083,0.08015 11.742801,-2.189336 11.742801,-2.189336"
       id="path1320-1"
       sodipodi:nodetypes="csc" />
    <path
       style="fill:none;stroke:#c83737;stroke-width:1.85208;stroke-linecap:round;stroke-dasharray:none;stroke-opacity:1"
       d="m 58.713997,19.802437 c 0,0 0.651153,1.692142 6.169946,1.791277 4.462083,0.08015 7.165104,-2.388366 7.165104,-2.388366"
       id="path1320-1-6"
       sodipodi:nodetypes="csc" />
    <path
       style="fill:none;stroke:#c83737;stroke-width:1.8103;stroke-linecap:round;stroke-dasharray:none;stroke-opacity:1"
       d="M 16.45635,37.575239 V 69.90123"
       id="path1382" />
    <path
       style="fill:none;stroke:#c83737;stroke-width:1.60945;stroke-linecap:round;stroke-dasharray:none;stroke-opacity:1"
       d="M 8.3592805,35.588904 V 61.139919"
       id="path1382-8" />
    <path
       style="fill:none;stroke:#c83737;stroke-width:1.82608;stroke-linecap:round;stroke-dasharray:none;stroke-opacity:1"
       d="m 62.177963,37.091697 v 32.89179"
       id="path1382-0" />
    <path
       style="fill:none;stroke:#c83737;stroke-width:1.65608;stroke-linecap:round;stroke-dasharray:none;stroke-opacity:1"
       d="M 69.660675,36.032134 V 63.085053"
       id="path1382-9" />
    <path
       style="fill:none;stroke:#c83737;stroke-width:1.85208;stroke-linecap:round;stroke-dasharray:none;stroke-opacity:1"
       d="m 16.55117,55.529602 c 0,0 2.742249,8.267814 7.662626,13.733012 4.856685,5.394454 14.330196,9.155403 14.330196,9.155403"
       id="path2176"
       sodipodi:nodetypes="csc" />
    <path
       style="fill:none;stroke:#c83737;stroke-width:1.89257;stroke-linecap:round;stroke-dasharray:none;stroke-opacity:1"
       d="m 62.027441,54.306075 c 0,0 -2.496066,9.837133 -7.950118,15.105695 -5.144634,4.969667 -14.599208,9.383967 -14.599208,9.383967"
       id="path2176-0"
       sodipodi:nodetypes="csc" />
    <ellipse
       style="opacity:1;fill:none;stroke:#c83737;stroke-width:2.19516;stroke-linecap:round;stroke-dasharray:none;stroke-opacity:1"
       id="path2532"
       cx="-43.426834"
       cy="92.37645"
       rx="0.28765908"
       ry="0.87025893"
       transform="matrix(1,0,0.64783008,0.76178487,0,0)"
       clip-path="url(#clipPath4058)" />
    <ellipse
       style="fill:#c83737;stroke:#c83737;stroke-width:2.19516;stroke-linecap:round;stroke-dasharray:none;stroke-opacity:1"
       id="path2532-6"
       cx="-122.30914"
       cy="93.649925"
       rx="0.28765908"
       ry="0.87025893"
       transform="matrix(-1,0,-0.64783008,0.76178487,0,0)"
       clip-path="url(#clipPath4823)" />
    <path
       style="opacity:1;fill:none;stroke:#c83737;stroke-width:1.85208;stroke-linecap:round;stroke-dasharray:none;stroke-opacity:1"
       d="m 16.417407,46.267237 c 0,0 5.911055,-1.826144 8.954949,-1.790988 2.956879,0.03415 8.656452,1.940237 8.656452,1.940237"
       id="path4881"
       sodipodi:nodetypes="csc" />
    <path
       style="fill:none;stroke:#c83737;stroke-width:1.85208;stroke-linecap:round;stroke-dasharray:none;stroke-opacity:1"
       d="m 44.083337,46.192885 c 0,0 5.911055,-1.826144 8.954949,-1.790988 2.956879,0.03415 8.656452,1.940237 8.656452,1.940237"
       id="path4881-7"
       sodipodi:nodetypes="csc" />
    <path
       style="opacity:1;fill:none;stroke:#c83737;stroke-width:1.85208;stroke-linecap:round;stroke-dasharray:none;stroke-opacity:1"
       d="m 33.581059,51.04321 c 0,0 -3.919683,1.554944 -5.969966,1.492493 -1.981593,-0.06036 -5.671467,-1.790991 -5.671467,-1.790991"
       id="path4905"
       sodipodi:nodetypes="csc" />
    <path
       style="fill:none;stroke:#c83737;stroke-width:1.85208;stroke-linecap:round;stroke-dasharray:none;stroke-opacity:1"
       d="m 55.683524,51.503478 c 0,0 -3.919683,1.554944 -5.969966,1.492493 -1.981593,-0.06036 -5.671467,-1.790991 -5.671467,-1.790991"
       id="path4905-3"
       sodipodi:nodetypes="csc" />
  </g>
</svg>
